<svg viewBox="0 0 16 16" preserveAspectRatio="xMidYMid meet" focusable="false" style="pointer-events: none; display: block; width: 100%; height: 100%;"><g><path fill-rule="evenodd" clip-rule="evenodd" d="M7,13.3L7,13.3c-0.4,0.4-1,0.4-1.4,0L0.9,8.7 c-0.4-0.4-0.4-1,0-1.4l0,0c0.4-0.4,1-0.4,1.4,0L7,11.9C7.4,12.3,7.4,12.9,7,13.3z"></path><path fill-rule="evenodd" clip-rule="evenodd" d="M5.7,13.4L5.7,13.4c-0.4-0.4-0.5-1-0.1-1.4l8-9.2 c0.4-0.4,1-0.5,1.4-0.1l0,0c0.4,0.4,0.5,1,0.1,1.4l-8,9.2C6.8,13.7,6.1,13.7,5.7,13.4z"></path></g></svg>